<?xml version="1.0" encoding="utf-8"?>
<!-- Generator: Adobe Illustrator 28.1.0, SVG Export Plug-In . SVG Version: 6.00 Build 0)  -->
<svg version="1.1"
	 id="Layer_1" xmlns:svg="http://www.w3.org/2000/svg" xmlns:cc="http://creativecommons.org/ns#" xmlns:inkscape="http://www.inkscape.org/namespaces/inkscape" xmlns:rdf="http://www.w3.org/1999/02/22-rdf-syntax-ns#" xmlns:dc="http://purl.org/dc/elements/1.1/" xmlns:sodipodi="http://sodipodi.sourceforge.net/DTD/sodipodi-0.dtd"
	 xmlns="http://www.w3.org/2000/svg" xmlns:xlink="http://www.w3.org/1999/xlink" x="0px" y="0px" viewBox="0 0 32 40"
	 style="enable-background:new 0 0 32 40;" xml:space="preserve">
<style type="text/css">
	.st0{fill-rule:evenodd;clip-rule:evenodd;}
</style>
<g transform="translate(0,-1020.3622)">
	<path class="st0" d="M20.3,1027.9c0.3,0,0.5,0.3,0.5,0.6l0,0v0.6c0,1.6-1,3-2.3,3h-1.9c-0.8,0-1.4,0.8-1.4,1.8v0.6h-0.9v-0.6
		c0-1.6,1-3,2.3-3h1.9c0.8,0,1.4-0.8,1.4-1.8v-0.6C19.8,1028.1,20,1027.9,20.3,1027.9C20.3,1027.9,20.3,1027.9,20.3,1027.9z"/>
	<path class="st0" d="M23,1025.4c0.3,0,0.5,0.2,0.5,0.5c0,0.1-0.1,0.3-0.2,0.4l-1,1c-0.2,0.2-0.5,0.2-0.7,0s-0.2-0.5,0-0.7
		c0,0,0,0,0,0l1-1C22.7,1025.4,22.9,1025.4,23,1025.4z"/>
	<path class="st0" d="M24.2,1027.9c0.3,0,0.5,0.2,0.5,0.5c0,0.3-0.2,0.5-0.5,0.5c0,0,0,0,0,0h-1.5c-0.3,0-0.5-0.2-0.5-0.5
		c0-0.3,0.2-0.5,0.5-0.5c0,0,0,0,0,0H24.2z"/>
	<path class="st0" d="M20.3,1024.4c0.3,0,0.5,0.2,0.5,0.5l0,0v1.5c0,0.3-0.2,0.5-0.5,0.5c-0.3,0-0.5-0.2-0.5-0.5c0,0,0,0,0,0v-1.5
		C19.7,1024.6,20,1024.4,20.3,1024.4C20.2,1024.4,20.3,1024.4,20.3,1024.4z"/>
	<path class="st0" d="M17.5,1025.4c0.1,0,0.3,0.1,0.3,0.2l1,1c0.2,0.2,0.2,0.5,0,0.7c-0.2,0.2-0.5,0.2-0.7,0c0,0,0,0,0,0l-1-1
		c-0.2-0.2-0.2-0.5,0-0.7C17.2,1025.4,17.4,1025.4,17.5,1025.4L17.5,1025.4z"/>
	<path class="st0" d="M17.7,1027.9c0.3,0,0.5,0.2,0.5,0.5c0,0.3-0.2,0.5-0.5,0.5c0,0,0,0,0,0h-1.5c-0.3,0-0.5-0.2-0.5-0.5
		s0.2-0.5,0.5-0.5c0,0,0,0,0,0H17.7z"/>
	<path class="st0" d="M14.2,1034.4c3.5,0,6.4,2.6,6.9,6l-13.2-2C9,1036,11.4,1034.4,14.2,1034.4z"/>
	<path class="st0" d="M7.5,1039.3l13.7,2v4l-14-4.5C7.3,1040.3,7.4,1039.8,7.5,1039.3z"/>
	<path class="st0" d="M7.2,1041.9l14,4.5v2c0,0.7-0.1,1.4-0.3,2l-13.7-5.6L7.2,1041.9z"/>
	<path class="st0" d="M7.2,1045.9l13.3,5.4c-0.6,1.3-1.7,2.5-3,3.2l-10.4-6.7V1045.9z"/>
	<path class="st0" d="M7.3,1049l9.2,6c-0.7,0.2-1.5,0.4-2.3,0.4C10.6,1055.4,7.6,1052.6,7.3,1049z"/>
</g>
</svg>
