<?xml version="1.0" encoding="utf-8"?>
<!-- Generator: Adobe Illustrator 28.1.0, SVG Export Plug-In . SVG Version: 6.00 Build 0)  -->
<svg version="1.1" id="Layer_1" xmlns="http://www.w3.org/2000/svg" xmlns:xlink="http://www.w3.org/1999/xlink" x="0px" y="0px"
	 viewBox="0 0 512 640" style="enable-background:new 0 0 512 640;" xml:space="preserve">
<g>
	<path d="M236.3,232.5h-21.9c-21,0-38,17-38,38V539c0,21,17,38,38,38h79.1c21,0,38-17,38-38V270.5c0-21-17-38-38-38h-21.3V201
		c0-9.9-8.1-18-18-18s-18,8.1-18,18V232.5z M295.5,441.3L212.4,475v-39.8l83.1-33.8V441.3z M295.5,362.6l-83.1,33.8v-45.8l83.1-33.8
		V362.6z M293.5,541h-79.1c-1.1,0-2-0.9-2-2v-25.1l83.1-33.8V539C295.5,540.1,294.6,541,293.5,541z M295.5,270.5v7.5l-83.1,33.8
		v-41.2c0-1.1,0.9-2,2-2h79.1C294.6,268.5,295.5,269.4,295.5,270.5z"/>
	<path d="M254.3,172.4c9.9,0,18-8.1,18-18V101c0-9.9-8.1-18-18-18s-18,8.1-18,18v53.5C236.3,164.4,244.3,172.4,254.3,172.4z"/>
	<path d="M310.3,182.4c6.1,0,12.1-3.1,15.5-8.8l20-33.5c5.1-8.5,2.3-19.6-6.2-24.7c-8.5-5.1-19.6-2.3-24.7,6.2l-20,33.5
		c-5.1,8.5-2.3,19.6,6.2,24.7C304,181.6,307.2,182.4,310.3,182.4z"/>
	<path d="M189.9,121.7c-5.1-8.5-16.1-11.3-24.7-6.2c-8.5,5.1-11.3,16.1-6.2,24.7l20,33.5c3.4,5.6,9.3,8.8,15.5,8.8
		c3.1,0,6.3-0.8,9.2-2.6c8.5-5.1,11.3-16.1,6.2-24.7L189.9,121.7z"/>
</g>
</svg>
