<?xml version="1.0" encoding="utf-8"?>
<!-- Generator: Adobe Illustrator 28.1.0, SVG Export Plug-In . SVG Version: 6.00 Build 0)  -->
<svg version="1.1" id="Layer_1" xmlns="http://www.w3.org/2000/svg" xmlns:xlink="http://www.w3.org/1999/xlink" x="0px" y="0px"
	 viewBox="0 0 1580 1975" style="enable-background:new 0 0 1580 1975;" xml:space="preserve">
<style type="text/css">
	.st0{fill-rule:evenodd;clip-rule:evenodd;}
</style>
<g>
	<path d="M980.3,1217.1c-6.4,0-12.5-2.5-17-7L241.1,487.9c-9.4-9.4-9.4-24.6,0-33.9l269.5-269.5c9.4-9.4,24.6-9.4,33.9,0
		l722.2,722.2c4.5,4.5,7,10.6,7,17s-2.5,12.5-7,17L997.2,1210C992.7,1214.5,986.6,1217.1,980.3,1217.1z M292.1,470.9l688.2,688.2
		l235.6-235.6L527.7,235.3L292.1,470.9z"/>
	<g>
		<path d="M437.4,674.2c-13.3,0-24-10.7-24-24V291.6c0-13.3,10.7-24,24-24s24,10.7,24,24v358.5C461.4,663.4,450.7,674.2,437.4,674.2
			z"/>
		<path d="M648.5,885.2c-13.3,0-24-10.7-24-24V322.2c0-13.3,10.7-24,24-24s24,10.7,24,24v539.1C672.5,874.5,661.7,885.2,648.5,885.2
			z"/>
		<path d="M859.5,1096.3c-13.3,0-24-10.7-24-24V533.2c0-13.3,10.7-24,24-24s24,10.7,24,24v539.1
			C883.5,1085.6,872.8,1096.3,859.5,1096.3z"/>
		<path d="M1070.6,1126.8c-13.3,0-24-10.7-24-24V744.3c0-13.3,10.7-24,24-24s24,10.7,24,24v358.5
			C1094.6,1116.1,1083.8,1126.8,1070.6,1126.8z"/>
	</g>
	<path d="M193.9,559.1c-2.2,0-4.5-0.3-6.7-1c-8.4-2.5-14.8-9.3-16.7-17.8L57.3,29.2c-1.8-8,0.7-16.4,6.5-22.2
		c5.8-5.8,14.1-8.2,22.2-6.5l511.1,113.2c8.6,1.9,15.4,8.3,17.8,16.7c2.5,8.4,0.1,17.5-6.1,23.7l-398,398
		C206.3,556.7,200.2,559.1,193.9,559.1z M112.3,55.6l95.6,431.6L544,151.1L112.3,55.6z"/>
	<path d="M1568.8,1266.5c-6.1,0-12.3-2.3-17-7l-318.9-318.9c-9.4-9.4-9.4-24.6,0-33.9s24.6-9.4,33.9,0l318.9,318.9
		c9.4,9.4,9.4,24.6,0,33.9C1581,1264.1,1574.9,1266.5,1568.8,1266.5z"/>
	<path d="M1144.5,1338c-6.1,0-12.3-2.3-17-7c-9.4-9.4-9.4-24.6,0-33.9c25.4-25.4,39.3-59.1,39.3-94.9s-14-69.6-39.3-94.9l-30.7-30.7
		c-9.4-9.4-9.4-24.6,0-33.9s24.6-9.4,33.9,0l30.7,30.7c34.4,34.4,53.4,80.2,53.4,128.8s-19,94.4-53.4,128.8
		C1156.7,1335.7,1150.6,1338,1144.5,1338z"/>
</g>
<path class="st0" d="M1239.8,1451.7c10,0.6,18.6-5.8,19.1-14.2c0.5-8.5-7.1-15.8-17.1-16.4c-0.2,0-0.3,0-0.5,0
	c-20.2-1-35.6-15.2-34.8-32.3c0.5-8.5-7.1-15.8-17.1-16.4c-10-0.6-18.6,5.8-19.1,14.2c0,0.1,0,0.3,0,0.4
	C1168.6,1420.6,1199.9,1449.8,1239.8,1451.7z"/>
<path class="st0" d="M1022.3,1441.4c39.8,1.9,73.8-24.2,75.4-57.8c0.5-8.5-7.1-15.8-17.1-16.4c-10-0.6-18.6,5.8-19.1,14.2
	c0,0.1,0,0.3,0,0.4c-0.8,17.1-17.5,29.9-37.7,28.9c-10-0.6-18.6,5.8-19.1,14.2c-0.5,8.5,7.1,15.8,17.1,16.4
	C1022,1441.4,1022.1,1441.4,1022.3,1441.4z"/>
<path class="st0" d="M1129.1,1492.5c10,0.3,18.3-6.2,18.6-14.7l0,0l2.2-45.5c0.5-8.5-7.1-15.8-17.1-16.4c-10-0.6-18.6,5.8-19.1,14.2
	c0,0.1,0,0.3,0,0.4l-2.2,45.5c-0.6,8.4,7.1,15.8,17.1,16.4C1128.8,1492.5,1129,1492.5,1129.1,1492.5z"/>
<path class="st0" d="M1260.8,1391.3c39.8,1.9,73.8-24.2,75.4-57.8c0.5-8.5-7.1-15.8-17.1-16.4s-18.6,5.8-19.1,14.2
	c0,0.1,0,0.3,0,0.4c-0.8,17.1-17.5,29.9-37.7,28.9c-10-0.6-18.6,5.8-19.1,14.2c-0.5,8.5,7.1,15.8,17.1,16.4
	C1260.4,1391.3,1260.6,1391.3,1260.8,1391.3z"/>
<path class="st0" d="M1007.1,1379.3c10,0.6,18.6-5.8,19.1-14.2c0.5-8.5-7.1-15.8-17.1-16.4c-0.2,0-0.3,0-0.5,0
	c-20.2-1-35.6-15.2-34.8-32.3c0.5-8.5-7.1-15.8-17.1-16.4c-10-0.6-18.6,5.8-19.1,14.2c0,0.1,0,0.3,0,0.4
	C935.9,1348.2,967.3,1377.4,1007.1,1379.3z"/>
<path class="st0" d="M1320.2,1286.6c0.4-8.5,8.8-14.9,18.8-14.5c10,0.5,17.8,7.7,17.4,16.2c-0.4,8.5-8.8,14.9-18.8,14.5
	C1327.6,1302.3,1319.8,1295.1,1320.2,1286.6z"/>
<path class="st0" d="M921.6,1267.8c0.4-8.5,8.8-14.9,18.8-14.5c10,0.5,17.8,7.7,17.4,16.2c-0.4,8.5-8.8,14.9-18.8,14.5
	S921.2,1276.2,921.6,1267.8z"/>
<path class="st0" d="M950.6,1422.6c0.4-8.5,8.8-14.9,18.8-14.5c10,0.5,17.8,7.7,17.4,16.2c-0.4,8.5-8.8,14.9-18.8,14.5
	C957.9,1438.3,950.2,1431.1,950.6,1422.6z"/>
<path class="st0" d="M1276.7,1438.1c0.4-8.5,8.8-14.9,18.8-14.5c10,0.5,17.8,7.7,17.4,16.2c-0.4,8.5-8.8,14.9-18.8,14.5
	C1284.1,1453.8,1276.3,1446.5,1276.7,1438.1z"/>
</svg>
