<?xml version="1.0" encoding="utf-8"?>
<!-- Generator: Adobe Illustrator 28.1.0, SVG Export Plug-In . SVG Version: 6.00 Build 0)  -->
<svg version="1.1"
	 id="Layer_1" xmlns:svg="http://www.w3.org/2000/svg" xmlns:cc="http://creativecommons.org/ns#" xmlns:inkscape="http://www.inkscape.org/namespaces/inkscape" xmlns:rdf="http://www.w3.org/1999/02/22-rdf-syntax-ns#" xmlns:dc="http://purl.org/dc/elements/1.1/" xmlns:sodipodi="http://sodipodi.sourceforge.net/DTD/sodipodi-0.dtd"
	 xmlns="http://www.w3.org/2000/svg" xmlns:xlink="http://www.w3.org/1999/xlink" x="0px" y="0px" viewBox="0 0 32 40"
	 style="enable-background:new 0 0 32 40;" xml:space="preserve">
<style type="text/css">
	.st0{fill-rule:evenodd;clip-rule:evenodd;}
</style>
<g transform="translate(0,-1020.3622)">
	<path class="st0" d="M13.9,1029c-5.7,1-9.5,6.5-8.5,12.2c1,5.7,6.5,9.5,12.2,8.5l0.2,0c6.4-1.2,10.6-7.3,9.5-13.7
		c-0.6-3.2-2.4-5.9-4.9-7.6c-0.2-0.2-0.5-0.1-0.7,0.1l-1.4,2l0.8,0.6l1.1-1.6c2,1.6,3.5,3.9,4,6.6c1.1,5.8-2.8,11.4-8.7,12.5l-0.2,0
		c-5.2,0.9-10.1-2.5-11-7.7c-0.9-5.2,2.5-10.1,7.7-11L13.9,1029z"/>
	<path class="st0" d="M13.4,1029.1c-1.1,0.3-2.2,0.8-3.1,1.5c-3.9,2.9-4.8,8.3-2.2,12.4c2.6,4.1,7.9,5.5,12.2,3.2
		c4.3-2.3,6-7.5,4.1-11.9c-0.1-0.3-0.4-0.4-0.7-0.3c-0.3,0.1-0.4,0.4-0.3,0.7c1.7,4,0.2,8.6-3.7,10.6c-3.8,2-8.5,0.8-10.9-2.8
		c-2.3-3.6-1.4-8.4,2-11c3.5-2.6,8.3-2.1,11.2,1.2c0.2,0.2,0.5,0.2,0.7,0.1c0.2-0.2,0.2-0.5,0.1-0.7c0,0,0,0,0,0
		C20.4,1029.2,16.7,1028.2,13.4,1029.1z"/>
	<path class="st0" d="M7.7,1042.5l0.8,4.3l1-0.2l-0.8-4.3L7.7,1042.5z"/>
	<path class="st0" d="M10.8,1045.8l0.5,3l1-0.2l-0.5-3L10.8,1045.8z"/>
	<path class="st0" d="M13.6,1046.8l0.4,2.5l1-0.2l-0.4-2.5L13.6,1046.8z"/>
	<path class="st0" d="M16.1,1046.9l0.4,2.5l1-0.2l-0.4-2.5L16.1,1046.9z"/>
	<path class="st0" d="M18.6,1046.4l0.4,2.5l1-0.2l-0.4-2.5L18.6,1046.4z"/>
	<path class="st0" d="M20.9,1045l0.4,2.5l1-0.2l-0.4-2.5L20.9,1045z"/>
	<path class="st0" d="M23,1042.6l0.6,3.4l1-0.2l-0.6-3.4L23,1042.6z"/>
	<path class="st0" d="M24,1036.8l1.2,6.9l1-0.2l-1.2-6.9L24,1036.8z"/>
	<path class="st0" d="M10.9,1039.1c-0.4-2,0.4-4,2.1-5.2c1.7-1.1,3.9-1.2,5.6,0c1.7,1.1,2.5,3.2,2.1,5.2c-0.4,2-2,3.5-4,3.9l-0.2-1
		c1.6-0.3,2.9-1.5,3.2-3.1s-0.3-3.2-1.7-4.1c-1.4-0.9-3.1-0.9-4.5,0c-1.3,0.9-2,2.6-1.7,4.2L10.9,1039.1z"/>
	<path class="st0" d="M16.2,1035.5c-0.1,0.3,0,0.5,0.3,0.6c0.3,0.1,0.5,0,0.6-0.3c0.1-0.3,0-0.5-0.3-0.6
		C16.6,1035.1,16.3,1035.3,16.2,1035.5z"/>
	<path class="st0" d="M14.5,1040.2c-0.1,0.3,0,0.5,0.3,0.6c0.3,0.1,0.5,0,0.6-0.3c0.1-0.3,0-0.5-0.3-0.6
		C14.9,1039.8,14.6,1040,14.5,1040.2z"/>
	<path class="st0" d="M17.7,1036.4c-0.2,0.1-0.3,0.4-0.2,0.7c0.1,0.2,0.4,0.3,0.7,0.2c0.2-0.1,0.3-0.4,0.2-0.7
		C18.3,1036.3,17.9,1036.2,17.7,1036.4z"/>
	<path class="st0" d="M13.4,1038.9c-0.2,0.1-0.3,0.4-0.2,0.7c0.1,0.2,0.4,0.3,0.7,0.2c0.2-0.1,0.3-0.4,0.2-0.7
		C13.9,1038.8,13.6,1038.7,13.4,1038.9z"/>
	<path class="st0" d="M18.3,1038c-0.3,0-0.5,0.1-0.6,0.4c0,0.3,0.1,0.5,0.4,0.6c0,0,0,0,0,0c0.3,0,0.5-0.1,0.6-0.4c0,0,0,0,0,0
		C18.8,1038.3,18.6,1038,18.3,1038z"/>
	<path class="st0" d="M13.4,1037.1c-0.3,0-0.5,0.1-0.6,0.4c0,0.3,0.1,0.5,0.4,0.6c0,0,0,0,0,0c0.3,0,0.5-0.1,0.6-0.4c0,0,0,0,0,0
		C13.9,1037.4,13.7,1037.2,13.4,1037.1z"/>
	<path class="st0" d="M17.8,1039.6c-0.2-0.2-0.5-0.2-0.7-0.1c-0.2,0.2-0.2,0.5-0.1,0.7c0.2,0.2,0.5,0.2,0.7,0.1
		C17.9,1040.2,18,1039.8,17.8,1039.6z"/>
	<path class="st0" d="M14.6,1035.8c-0.2-0.2-0.5-0.2-0.7-0.1c0,0,0,0,0,0c-0.2,0.2-0.2,0.5-0.1,0.7c0,0,0,0,0,0
		c0.2,0.2,0.5,0.2,0.7,0.1C14.7,1036.3,14.7,1036,14.6,1035.8z"/>
	<path class="st0" d="M16.5,1023.4c-0.3,0-0.5,0.3-0.4,0.6c0,0.1,0.1,0.2,0.1,0.3l3.2,3.5c0.2,0.2,0.5,0.2,0.7,0.1
		c0.2-0.2,0.2-0.5,0.1-0.7c0,0,0,0,0,0l-3.2-3.5C16.8,1023.5,16.6,1023.4,16.5,1023.4L16.5,1023.4z"/>
	<path class="st0" d="M14.9,1026.3c-0.3,0.1-0.4,0.3-0.4,0.6c0,0.2,0.2,0.3,0.4,0.4l2.1,0.6c0.3,0.1,0.5-0.1,0.6-0.3
		c0.1-0.3-0.1-0.5-0.3-0.6l-2.1-0.6C15.1,1026.3,15,1026.2,14.9,1026.3L14.9,1026.3z"/>
	<path class="st0" d="M19.5,1022.1c-0.3,0.1-0.4,0.3-0.4,0.6l0,0l0.4,2.2c0,0.3,0.3,0.5,0.6,0.4c0.3,0,0.5-0.3,0.4-0.6c0,0,0,0,0,0
		l-0.4-2.2C20.1,1022.3,19.8,1022.1,19.5,1022.1C19.5,1022.1,19.5,1022.1,19.5,1022.1L19.5,1022.1z"/>
</g>
</svg>
