<?xml version="1.0" encoding="utf-8"?>
<!-- Generator: Adobe Illustrator 28.1.0, SVG Export Plug-In . SVG Version: 6.00 Build 0)  -->
<svg version="1.1" id="Layer_1" xmlns="http://www.w3.org/2000/svg" xmlns:xlink="http://www.w3.org/1999/xlink" x="0px" y="0px"
	 viewBox="0 0 64 80" style="enable-background:new 0 0 64 80;" xml:space="preserve">
<path d="M17.2,54.1c-0.5,0.7-0.3,1.6,0.3,2.1l1.3,0.9L6.4,74.3c-0.3,0.5-0.2,1.1,0.2,1.4c0.4,0.3,1,0.2,1.4-0.2l12.4-17.2l1.3,0.9
	c0.7,0.5,1.6,0.3,2.1-0.3l21.1-29.3l-6.6-4.8L17.2,54.1z"/>
<path d="M42.4,19.1l-2.9,4l6.6,4.8l2.9-4c1.3-1.8,0.9-4.4-0.9-5.7l0,0C46.3,16.9,43.7,17.3,42.4,19.1C42.4,19.1,42.4,19.1,42.4,19.1
	z"/>
<path d="M51.7,14.9l2.3-3.3c0.3-0.4,0.2-1.1-0.2-1.4c-0.4-0.3-1.1-0.2-1.4,0.2c0,0,0,0,0,0l-2.3,3.3c-0.3,0.4-0.2,1.1,0.2,1.4
	C50.8,15.4,51.4,15.3,51.7,14.9z"/>
<path d="M43,13.4c0.5-0.1,0.9-0.6,0.8-1.1l-0.6-4c-0.1-0.5-0.6-0.9-1.1-0.8c-0.5,0.1-0.9,0.6-0.8,1.1l0.6,4
	C42,13.1,42.5,13.5,43,13.4z"/>
<path d="M35.3,17.6c0.4,0.3,1.1,0.2,1.4-0.2s0.2-1.1-0.2-1.4c0,0,0,0,0,0l-3.3-2.3c-0.5-0.3-1.1-0.2-1.4,0.2c-0.3,0.4-0.2,1,0.2,1.4
	L35.3,17.6z"/>
<path d="M53.9,28.6c-0.5-0.3-1.1-0.2-1.4,0.2c-0.3,0.4-0.2,1,0.2,1.4l3.3,2.3c0.5,0.3,1.1,0.2,1.4-0.2c0.3-0.4,0.2-1-0.2-1.4
	L53.9,28.6z"/>
<path d="M59,19.7l-4,0.6c-0.5,0.1-0.9,0.6-0.8,1.1c0.1,0.5,0.6,0.9,1.1,0.8l4-0.6c0.5-0.1,0.9-0.6,0.8-1.1
	C60.1,20,59.6,19.6,59,19.7z"/>
</svg>
